<svg version="1.1" id="sqe_icon" xmlns="http://www.w3.org/2000/svg" xmlns:xlink="http://www.w3.org/1999/xlink" x="0px" y="0px" viewBox="0 0 16 16" enable-background="new 0 0 16 16" xml:space="preserve">
<path d="M12,4H4C2.15,4,0,5.57,0,7.5v1A3.35,3.35,0,0,0,3.25,12a3.45,3.45,0,0,0,2.52-1l4.46-.08A3.48,3.48,0,0,0,12.75,12,3.35,3.35,0,0,0,16,8.5v-1C16,5.57,13.85,4,12,4ZM5,7.75A.25.25,0,0,1,4.75,8H4v.75A.25.25,0,0,1,3.75,9h-.5A.25.25,0,0,1,3,8.75V8H2.25A.25.25,0,0,1,2,7.75v-.5A.25.25,0,0,1,2.25,7H3V6.25A.25.25,0,0,1,3.25,6h.5A.25.25,0,0,1,4,6.25V7h.75A.25.25,0,0,1,5,7.25ZM9.71,8H7.57l.94-.92c-.14-.14,0-.33.11-.38l.09.09c.13.13-.07.24-.07.24l.29.29s.21-.45,0-.69l-.18-.18.38-.38.06,0a.25.25,0,1,0-.25-.25s0,.05,0,.08l-.37.37-.18-.18c-.25-.24-.7,0-.7,0L8,6.37s.11-.2.24-.07l.1.09c-.06.06-.25.25-.39.11L6.41,8H6.29A2,2,0,1,1,9.71,8ZM12.5,6a.5.5,0,1,1-.5.5A.5.5,0,0,1,12.5,6Zm-1,2a.5.5,0,1,1,.5-.5A.5.5,0,0,1,11.5,8Zm1,1a.5.5,0,1,1,.5-.5A.5.5,0,0,1,12.5,9Zm1-1a.5.5,0,1,1,.5-.5A.5.5,0,0,1,13.5,8Z" fill="#bebebe"/>
</svg>